<svg width="22" height="21" viewBox="0 0 22 21" fill="none" xmlns="http://www.w3.org/2000/svg">
<path d="M21.9942 10.4774C21.9942 11.2156 21.4212 11.7938 20.7717 11.7938H19.5492L19.5759 18.3632C19.5759 18.4739 19.5683 18.5847 19.5568 18.6954V19.3597C19.5568 20.266 18.8729 21 18.0286 21H17.4174C17.3753 21 17.3333 21 17.2913 20.9959C17.2378 21 17.1843 21 17.1308 21L15.8892 20.9959H14.9723C14.128 20.9959 13.4441 20.2619 13.4441 19.3556V18.3714V15.7469C13.4441 15.0211 12.8978 14.4347 12.2216 14.4347H9.77649C9.10027 14.4347 8.55395 15.0211 8.55395 15.7469V18.3714V19.3556C8.55395 20.2619 7.87009 20.9959 7.02577 20.9959H6.10887H4.89015C4.83285 20.9959 4.77554 20.9918 4.71823 20.9877C4.67239 20.9918 4.62654 20.9959 4.5807 20.9959H3.96943C3.12511 20.9959 2.44126 20.2619 2.44126 19.3556V14.7627C2.44126 14.7258 2.44126 14.6848 2.44508 14.6479V11.7897H1.22254C0.53486 11.7897 0 11.2156 0 10.4733C0 10.1043 0.114613 9.77622 0.382043 9.48916L10.1738 0.328061C10.4412 0.0410076 10.7469 0 11.0143 0C11.2817 0 11.5874 0.0820152 11.8166 0.287053L21.574 9.49326C21.8796 9.78032 22.0324 10.1084 21.9942 10.4774Z" fill="#CFCFCF"/>
</svg>
