<svg width="35" height="25" viewBox="0 0 35 25" fill="none" xmlns="http://www.w3.org/2000/svg">
<path d="M12.3621 17.8173C9.35312 17.8173 6.90653 15.3707 6.90653 12.3618V1.03613H0V12.3601C0 19.1765 5.54561 24.7221 12.3621 24.7221C15.8519 24.7221 19.0053 23.266 21.2548 20.935C19.2075 18.8129 17.9128 15.9654 17.7973 12.8188C17.5645 15.6137 15.2164 17.8173 12.3621 17.8173Z" fill="white"/>
<path d="M35 0H30.1476C28.2022 0 26.3621 0.451937 24.7243 1.25557C20.859 3.14997 18.1253 7.00503 17.8178 11.5142V12.3603C17.8178 12.5149 17.8093 12.6661 17.7974 12.8174C17.9129 15.9639 19.2076 18.8115 21.2549 20.9335C23.3022 18.8115 24.5969 15.9639 24.7124 12.8174C24.7005 12.6661 24.692 12.5149 24.692 12.3603C24.692 12.1615 24.7039 11.9661 24.7243 11.7725C25.0182 9.04045 27.3391 6.90479 30.1476 6.90479H35V0Z" fill="url(#paint0_linear_274_290)"/>
<path d="M35 17.8178H30.1476C27.2932 17.8178 24.9452 15.6142 24.7124 12.8193C24.5969 15.9659 23.3022 18.8135 21.2549 20.9355C23.5044 23.2683 26.6578 24.7226 30.1476 24.7226H35V17.8161V17.8178Z" fill="#8FA6EE"/>
<defs>
<linearGradient id="paint0_linear_274_290" x1="17.7974" y1="10.4676" x2="39.0775" y2="-3.05834" gradientUnits="userSpaceOnUse">
<stop stop-color="white"/>
<stop offset="0.28" stop-color="#D1D9F2"/>
<stop offset="0.631667" stop-color="#8FA6EE"/>
<stop offset="0.89" stop-color="#8FA6EE"/>
</linearGradient>
</defs>
</svg>
