<svg width="32" height="22" viewBox="0 0 32 22" fill="none" xmlns="http://www.w3.org/2000/svg">
<g clip-path="url(#clip0_36_31)">
<path d="M22.6037 10.4761C22.5849 10.6484 22.574 10.8223 22.574 10.9992C22.574 11.1368 22.5818 11.2713 22.5927 11.4059C22.5974 11.2713 22.6037 11.1353 22.6037 10.9992V10.4761Z" fill="black"/>
<path d="M11.3025 15.8556C8.55146 15.8556 6.31456 13.6785 6.31456 11.0008V0.922363H0V10.9993C0 17.0652 5.07029 22.0001 11.3025 22.0001C14.4932 22.0001 17.3763 20.7044 19.433 18.63C17.5612 16.7416 16.3775 14.2076 16.2718 11.4076C16.059 13.8947 13.9122 15.8556 11.3025 15.8556Z" fill="#2B328A"/>
<path d="M16.2907 10.248C16.2735 10.4975 16.261 10.747 16.261 11.001C16.261 11.1371 16.2672 11.2731 16.2719 11.4077C16.2829 11.2731 16.2907 11.1386 16.2907 11.001V10.248Z" fill="black"/>
<path d="M31.9999 0H27.5634C25.7847 0 24.1024 0.402172 22.6049 1.11731C19.071 2.80311 16.5715 6.23366 16.2904 10.2463V10.9992C16.2904 11.1368 16.2826 11.2714 16.2717 11.406C16.3774 14.206 17.561 16.74 19.4329 18.6284C21.3047 16.74 22.4884 14.206 22.5941 11.406C22.5832 11.2714 22.5754 11.1368 22.5754 10.9992C22.5754 10.8223 22.5863 10.6485 22.6049 10.4761C22.8737 8.04494 24.9956 6.14446 27.5634 6.14446H31.9999V0Z" fill="url(#paint0_linear_36_31)"/>
<path d="M32.0001 15.8553H27.5636C24.9539 15.8553 22.8071 13.8943 22.5943 11.4072C22.4886 14.2073 21.305 16.7413 19.4331 18.6297C21.4898 20.7056 24.3729 21.9998 27.5636 21.9998H32.0001V15.8538V15.8553Z" fill="#008480"/>
</g>
<defs>
<linearGradient id="paint0_linear_36_31" x1="16.2717" y1="9.31496" x2="31.9999" y2="9.31496" gradientUnits="userSpaceOnUse">
<stop offset="0.11" stop-color="#2B328A"/>
<stop offset="0.37" stop-color="#1B4F86"/>
<stop offset="0.74" stop-color="#077581"/>
<stop offset="0.93" stop-color="#008480"/>
</linearGradient>
<clipPath id="clip0_36_31">
<rect width="32" height="22" fill="white"/>
</clipPath>
</defs>
</svg>
