<svg width="19" height="21" viewBox="0 0 19 21" fill="none" xmlns="http://www.w3.org/2000/svg">
<g clip-path="url(#clip0_235_176)">
<path d="M9.5 10.5C10.9397 10.5 12.3205 9.94688 13.3386 8.96231C14.3566 7.97774 14.9286 6.64239 14.9286 5.25C14.9286 3.85761 14.3566 2.52226 13.3386 1.53769C12.3205 0.553123 10.9397 0 9.5 0C8.06025 0 6.67947 0.553123 5.66142 1.53769C4.64337 2.52226 4.07143 3.85761 4.07143 5.25C4.07143 6.64239 4.64337 7.97774 5.66142 8.96231C6.67947 9.94688 8.06025 10.5 9.5 10.5ZM7.56183 12.4687C3.38437 12.4687 0 15.7418 0 19.7818C0 20.4545 0.564062 21 1.2596 21H17.7404C18.4359 21 19 20.4545 19 19.7818C19 15.7418 15.6156 12.4687 11.4382 12.4687H7.56183Z" fill="#CFCFCF"/>
</g>
<defs>
<clipPath id="clip0_235_176">
<rect width="19" height="21" fill="white"/>
</clipPath>
</defs>
</svg>
